<svg width="25" height="25" viewBox="0 0 25 25" fill="none" xmlns="http://www.w3.org/2000/svg">
<mask id="mask0_71766_5971" style="mask-type:alpha" maskUnits="userSpaceOnUse" x="0" y="0" width="25" height="25">
<rect x="0.0166626" y="0.5" width="24" height="24" fill="#D9D9D9"/>
</mask>
<g mask="url(#mask0_71766_5971)">
<path d="M9.56669 15.65L18.0417 7.175C18.2417 6.975 18.4792 6.875 18.7542 6.875C19.0292 6.875 19.2667 6.975 19.4667 7.175C19.6667 7.375 19.7667 7.6125 19.7667 7.8875C19.7667 8.1625 19.6667 8.4 19.4667 8.6L10.2667 17.8C10.0667 18 9.83335 18.1 9.56669 18.1C9.30002 18.1 9.06669 18 8.86669 17.8L4.56669 13.5C4.36669 13.3 4.27085 13.0625 4.27919 12.7875C4.28752 12.5125 4.39169 12.275 4.59169 12.075C4.79169 11.875 5.02919 11.775 5.30419 11.775C5.57919 11.775 5.81669 11.875 6.01669 12.075L9.56669 15.65Z" fill="white"/>
</g>
</svg>
