<svg width="111" height="56" viewBox="0 0 111 56" fill="none" xmlns="http://www.w3.org/2000/svg">
<rect x="0.748535" y="0.5" width="109" height="55" rx="9.5" stroke="#2A3647"/>
<path d="M29.7144 25H27.9531C27.8489 24.4934 27.6666 24.0483 27.4062 23.6648C27.1505 23.2812 26.838 22.9593 26.4687 22.6989C26.1041 22.4337 25.6993 22.2348 25.2542 22.1023C24.8091 21.9697 24.3451 21.9034 23.8622 21.9034C22.9815 21.9034 22.1837 22.1259 21.4687 22.571C20.7585 23.0161 20.1927 23.6719 19.7713 24.5384C19.3546 25.4048 19.1463 26.4678 19.1463 27.7273C19.1463 28.9867 19.3546 30.0497 19.7713 30.9162C20.1927 31.7827 20.7585 32.4384 21.4687 32.8835C22.1837 33.3286 22.9815 33.5511 23.8622 33.5511C24.3451 33.5511 24.8091 33.4848 25.2542 33.3523C25.6993 33.2197 26.1041 33.0232 26.4687 32.7628C26.838 32.4976 27.1505 32.1733 27.4062 31.7898C27.6666 31.4015 27.8489 30.9564 27.9531 30.4545H29.7144C29.5819 31.1979 29.3404 31.8632 28.99 32.4503C28.6396 33.0374 28.204 33.5369 27.6832 33.9489C27.1624 34.3561 26.5776 34.6662 25.9289 34.8793C25.285 35.0923 24.5961 35.1989 23.8622 35.1989C22.6216 35.1989 21.5184 34.8958 20.5525 34.2898C19.5866 33.6837 18.8267 32.822 18.2727 31.7045C17.7187 30.5871 17.4417 29.2614 17.4417 27.7273C17.4417 26.1932 17.7187 24.8674 18.2727 23.75C18.8267 22.6326 19.5866 21.7708 20.5525 21.1648C21.5184 20.5587 22.6216 20.2557 23.8622 20.2557C24.5961 20.2557 25.285 20.3622 25.9289 20.5753C26.5776 20.7884 27.1624 21.1009 27.6832 21.5128C28.204 21.92 28.6396 22.4171 28.99 23.0043C29.3404 23.5866 29.5819 24.2519 29.7144 25ZM34.0095 20.4545V35H32.3334V20.4545H34.0095ZM41.6534 35.2273C40.6022 35.2273 39.6955 34.9953 38.9332 34.5312C38.1756 34.0625 37.5909 33.4091 37.1789 32.571C36.7717 31.7282 36.5681 30.7481 36.5681 29.6307C36.5681 28.5133 36.7717 27.5284 37.1789 26.6761C37.5909 25.8191 38.1638 25.1515 38.8977 24.6733C39.6363 24.1903 40.4981 23.9489 41.4829 23.9489C42.0511 23.9489 42.6122 24.0436 43.1661 24.233C43.7201 24.4223 44.2244 24.7301 44.6789 25.1562C45.1335 25.5777 45.4957 26.1364 45.7656 26.8324C46.0355 27.5284 46.1704 28.3854 46.1704 29.4034V30.1136H37.7613V28.6648H44.4659C44.4659 28.0492 44.3428 27.5 44.0965 27.017C43.8551 26.5341 43.5094 26.1529 43.0596 25.8736C42.6145 25.5942 42.089 25.4545 41.4829 25.4545C40.8153 25.4545 40.2376 25.6203 39.75 25.9517C39.267 26.2784 38.8953 26.7045 38.6349 27.2301C38.3745 27.7557 38.2443 28.3191 38.2443 28.9205V29.8864C38.2443 30.7102 38.3863 31.4086 38.6704 31.9815C38.9592 32.5497 39.3593 32.983 39.8707 33.2812C40.3821 33.5748 40.9763 33.7216 41.6534 33.7216C42.0937 33.7216 42.4914 33.66 42.8465 33.5369C43.2064 33.4091 43.5165 33.2197 43.7769 32.9688C44.0374 32.7131 44.2386 32.3958 44.3806 32.017L46 32.4716C45.8295 33.0208 45.543 33.5038 45.1406 33.9205C44.7381 34.3324 44.241 34.6544 43.6491 34.8864C43.0572 35.1136 42.392 35.2273 41.6534 35.2273ZM51.9304 35.2557C51.2391 35.2557 50.6117 35.1255 50.0483 34.8651C49.4848 34.5999 49.0374 34.2188 48.7059 33.7216C48.3745 33.2197 48.2088 32.6136 48.2088 31.9034C48.2088 31.2784 48.3319 30.7718 48.5781 30.3835C48.8243 29.9905 49.1534 29.6828 49.5653 29.4602C49.9772 29.2377 50.4318 29.072 50.9289 28.9631C51.4308 28.8494 51.9351 28.7595 52.4417 28.6932C53.1046 28.608 53.642 28.544 54.0539 28.5014C54.4706 28.4541 54.7736 28.3759 54.963 28.267C55.1572 28.1581 55.2542 27.9687 55.2542 27.6989V27.642C55.2542 26.9413 55.0625 26.3968 54.6789 26.0085C54.3001 25.6203 53.7249 25.4261 52.9531 25.4261C52.1529 25.4261 51.5255 25.6013 51.071 25.9517C50.6164 26.3021 50.2968 26.6761 50.1122 27.0739L48.5213 26.5057C48.8054 25.8428 49.1841 25.3267 49.6576 24.9574C50.1358 24.5833 50.6567 24.3229 51.2201 24.1761C51.7883 24.0246 52.347 23.9489 52.8963 23.9489C53.2466 23.9489 53.6491 23.9915 54.1036 24.0767C54.5629 24.1572 55.0056 24.3253 55.4318 24.581C55.8626 24.8366 56.2201 25.2225 56.5042 25.7386C56.7883 26.2547 56.9304 26.946 56.9304 27.8125V35H55.2542V33.5227H55.169C55.0554 33.7595 54.866 34.0128 54.6008 34.2827C54.3357 34.5526 53.9829 34.7822 53.5426 34.9716C53.1022 35.161 52.5648 35.2557 51.9304 35.2557ZM52.186 33.75C52.8489 33.75 53.4076 33.6198 53.8622 33.3594C54.3215 33.099 54.6671 32.7628 54.8991 32.3509C55.1358 31.9389 55.2542 31.5057 55.2542 31.0511V29.517C55.1832 29.6023 55.0269 29.6804 54.7855 29.7514C54.5487 29.8177 54.2741 29.8769 53.9616 29.929C53.6538 29.9763 53.3532 30.0189 53.0596 30.0568C52.7708 30.09 52.5364 30.1184 52.3565 30.142C51.9209 30.1989 51.5137 30.2912 51.1349 30.419C50.7608 30.5421 50.4578 30.7292 50.2258 30.9801C49.9985 31.2263 49.8849 31.5625 49.8849 31.9886C49.8849 32.571 50.1003 33.0114 50.5312 33.3097C50.9668 33.6032 51.5184 33.75 52.186 33.75ZM59.9897 35V24.0909H61.609V25.7386H61.7226C61.9215 25.1989 62.2813 24.7609 62.8022 24.4247C63.323 24.0885 63.9101 23.9205 64.5635 23.9205C64.6866 23.9205 64.8405 23.9228 65.0252 23.9276C65.2098 23.9323 65.3495 23.9394 65.4442 23.9489V25.6534C65.3874 25.6392 65.2572 25.6179 65.0536 25.5895C64.8547 25.5563 64.644 25.5398 64.4215 25.5398C63.8912 25.5398 63.4177 25.651 63.001 25.8736C62.5891 26.0914 62.2624 26.3944 62.0209 26.7827C61.7842 27.1662 61.6658 27.6042 61.6658 28.0966V35H59.9897Z" fill="#2A3647"/>
<path d="M82.2496 27.9998L87.4926 33.2428M77.0066 33.2428L82.2496 27.9998L77.0066 33.2428ZM87.4926 22.7568L82.2486 27.9998L87.4926 22.7568ZM82.2486 27.9998L77.0066 22.7568L82.2486 27.9998Z" stroke="#2A3647" stroke-width="2" stroke-linecap="round" stroke-linejoin="round"/>
</svg>
