<svg width="14" height="14" viewBox="0 0 14 14" fill="none" xmlns="http://www.w3.org/2000/svg">
<path d="M7.00078 8.40005L2.10078 13.3C1.91745 13.4834 1.68411 13.575 1.40078 13.575C1.11745 13.575 0.884115 13.4834 0.700781 13.3C0.517448 13.1167 0.425781 12.8834 0.425781 12.6C0.425781 12.3167 0.517448 12.0834 0.700781 11.9L5.60078 7.00005L0.700781 2.10005C0.517448 1.91672 0.425781 1.68338 0.425781 1.40005C0.425781 1.11672 0.517448 0.883382 0.700781 0.700049C0.884115 0.516715 1.11745 0.425049 1.40078 0.425049C1.68411 0.425049 1.91745 0.516715 2.10078 0.700049L7.00078 5.60005L11.9008 0.700049C12.0841 0.516715 12.3174 0.425049 12.6008 0.425049C12.8841 0.425049 13.1174 0.516715 13.3008 0.700049C13.4841 0.883382 13.5758 1.11672 13.5758 1.40005C13.5758 1.68338 13.4841 1.91672 13.3008 2.10005L8.40078 7.00005L13.3008 11.9C13.4841 12.0834 13.5758 12.3167 13.5758 12.6C13.5758 12.8834 13.4841 13.1167 13.3008 13.3C13.1174 13.4834 12.8841 13.575 12.6008 13.575C12.3174 13.575 12.0841 13.4834 11.9008 13.3L7.00078 8.40005Z" fill="#2A3647"/>
</svg>
