<svg width="184" height="56" viewBox="0 0 184 56" fill="none" xmlns="http://www.w3.org/2000/svg">
<rect x="0.248535" width="183" height="56" rx="10" fill="#2A3647"/>
<path d="M31.0514 26.0742H27.7851C27.7255 25.6516 27.6036 25.2763 27.4197 24.9482C27.2358 24.6151 26.9996 24.3317 26.7112 24.098C26.4229 23.8643 26.0898 23.6854 25.712 23.5611C25.3391 23.4368 24.9339 23.3746 24.4964 23.3746C23.7059 23.3746 23.0174 23.571 22.4307 23.9638C21.8441 24.3516 21.3892 24.9183 21.066 25.6641C20.7429 26.4048 20.5813 27.3047 20.5813 28.3636C20.5813 29.4524 20.7429 30.3672 21.066 31.108C21.3941 31.8487 21.8515 32.408 22.4382 32.7859C23.0248 33.1637 23.7034 33.3526 24.474 33.3526C24.9066 33.3526 25.3068 33.2955 25.6747 33.1811C26.0475 33.0668 26.3782 32.9002 26.6665 32.6815C26.9549 32.4577 27.1935 32.1868 27.3824 31.8686C27.5763 31.5504 27.7105 31.1875 27.7851 30.7798L31.0514 30.7947C30.9669 31.4957 30.7556 32.1719 30.4176 32.8232C30.0845 33.4695 29.6345 34.0487 29.0678 34.5607C28.506 35.0678 27.8348 35.4705 27.0543 35.7688C26.2787 36.0621 25.4012 36.2088 24.4218 36.2088C23.0596 36.2088 21.8416 35.9006 20.7677 35.2841C19.6988 34.6676 18.8536 33.7752 18.2322 32.6069C17.6157 31.4386 17.3075 30.0241 17.3075 28.3636C17.3075 26.6982 17.6207 25.2812 18.2471 24.1129C18.8735 22.9446 19.7237 22.0547 20.7975 21.4432C21.8714 20.8267 23.0795 20.5185 24.4218 20.5185C25.3068 20.5185 26.1271 20.6428 26.8828 20.8913C27.6434 21.1399 28.3171 21.5028 28.9037 21.9801C29.4904 22.4524 29.9676 23.0316 30.3355 23.7177C30.7084 24.4038 30.947 25.1893 31.0514 26.0742ZM33.3073 36V24.5455H36.3872V26.544H36.5065C36.7153 25.8331 37.0658 25.2962 37.558 24.9332C38.0502 24.5653 38.617 24.3814 39.2583 24.3814C39.4174 24.3814 39.5889 24.3913 39.7729 24.4112C39.9568 24.4311 40.1184 24.4585 40.2576 24.4933V27.3121C40.1084 27.2674 39.9021 27.2276 39.6386 27.1928C39.3751 27.158 39.134 27.1406 38.9153 27.1406C38.4479 27.1406 38.0303 27.2425 37.6624 27.4464C37.2995 27.6452 37.0111 27.9237 36.7974 28.2816C36.5886 28.6396 36.4842 29.0522 36.4842 29.5195V36H33.3073ZM46.587 36.2237C45.4088 36.2237 44.3946 35.9851 43.5444 35.5078C42.6993 35.0256 42.048 34.3445 41.5906 33.4645C41.1332 32.5795 40.9045 31.533 40.9045 30.3249C40.9045 29.1467 41.1332 28.1126 41.5906 27.2227C42.048 26.3327 42.6918 25.6392 43.5221 25.142C44.3573 24.6449 45.3367 24.3963 46.4603 24.3963C47.216 24.3963 47.9194 24.5181 48.5707 24.7617C49.227 25.0004 49.7987 25.3608 50.2859 25.843C50.7781 26.3253 51.1609 26.9318 51.4343 27.6626C51.7078 28.3885 51.8445 29.2386 51.8445 30.2131V31.0856H42.1723V29.1168H48.8541C48.8541 28.6594 48.7547 28.2543 48.5558 27.9013C48.3569 27.5483 48.081 27.2724 47.728 27.0735C47.38 26.8697 46.9748 26.7678 46.5125 26.7678C46.0302 26.7678 45.6027 26.8796 45.2298 27.1033C44.8619 27.3221 44.5736 27.6179 44.3647 27.9908C44.1559 28.3587 44.0491 28.7688 44.0441 29.2212V31.093C44.0441 31.6598 44.1485 32.1495 44.3573 32.5621C44.5711 32.9748 44.8718 33.293 45.2596 33.5167C45.6474 33.7404 46.1073 33.8523 46.6392 33.8523C46.9922 33.8523 47.3154 33.8026 47.6087 33.7031C47.902 33.6037 48.1531 33.4545 48.3619 33.2557C48.5707 33.0568 48.7298 32.8132 48.8392 32.5249L51.7774 32.7188C51.6282 33.4247 51.3225 34.0412 50.8601 34.5682C50.4027 35.0902 49.8111 35.4979 49.0853 35.7912C48.3644 36.0795 47.5316 36.2237 46.587 36.2237ZM57.184 36.2163C56.4532 36.2163 55.8019 36.0895 55.2302 35.8359C54.6584 35.5774 54.206 35.1971 53.8729 34.695C53.5448 34.1879 53.3807 33.5565 53.3807 32.8008C53.3807 32.1644 53.4976 31.63 53.7312 31.1974C53.9649 30.7649 54.2831 30.4169 54.6858 30.1534C55.0885 29.8899 55.5459 29.6911 56.0579 29.5568C56.575 29.4226 57.1169 29.3281 57.6836 29.2734C58.3498 29.2038 58.8868 29.1392 59.2944 29.0795C59.7021 29.0149 59.9979 28.9205 60.1819 28.7962C60.3658 28.6719 60.4578 28.4879 60.4578 28.2443V28.1996C60.4578 27.7273 60.3086 27.3619 60.0103 27.1033C59.717 26.8448 59.2994 26.7156 58.7575 26.7156C58.1858 26.7156 57.7309 26.8423 57.3928 27.0959C57.0547 27.3445 56.831 27.6577 56.7216 28.0355L53.7834 27.7969C53.9326 27.1009 54.2259 26.4993 54.6634 25.9922C55.1009 25.4801 55.6652 25.0874 56.3562 24.8139C57.0522 24.5355 57.8576 24.3963 58.7724 24.3963C59.4088 24.3963 60.0178 24.4709 60.5995 24.62C61.1861 24.7692 61.7057 25.0004 62.1581 25.3136C62.6155 25.6268 62.9759 26.0295 63.2394 26.5217C63.5029 27.0089 63.6346 27.593 63.6346 28.2741V36H60.6218V34.4116H60.5324C60.3484 34.7695 60.1023 35.0852 59.7941 35.3587C59.4858 35.6271 59.1155 35.8384 58.6829 35.9925C58.2504 36.1417 57.7508 36.2163 57.184 36.2163ZM58.0938 34.0238C58.5611 34.0238 58.9738 33.9318 59.3317 33.7479C59.6897 33.5589 59.9706 33.3054 60.1744 32.9872C60.3782 32.669 60.4802 32.3086 60.4802 31.9059V30.6903C60.3807 30.755 60.244 30.8146 60.07 30.8693C59.901 30.919 59.7096 30.9663 59.4958 31.011C59.282 31.0508 59.0682 31.0881 58.8544 31.1229C58.6407 31.1527 58.4468 31.18 58.2728 31.2049C57.8999 31.2596 57.5743 31.3466 57.2959 31.4659C57.0174 31.5852 56.8012 31.7468 56.6471 31.9506C56.4929 32.1495 56.4159 32.3981 56.4159 32.6964C56.4159 33.1289 56.5725 33.4595 56.8857 33.6882C57.2039 33.9119 57.6066 34.0238 58.0938 34.0238ZM72.192 24.5455V26.9318H65.2939V24.5455H72.192ZM66.86 21.8011H70.0368V32.4801C70.0368 32.7734 70.0815 33.0021 70.171 33.1662C70.2605 33.3253 70.3848 33.4371 70.5439 33.5018C70.708 33.5664 70.8969 33.5987 71.1107 33.5987C71.2598 33.5987 71.409 33.5863 71.5581 33.5614C71.7073 33.5316 71.8216 33.5092 71.9011 33.4943L72.4008 35.8583C72.2417 35.908 72.018 35.9652 71.7296 36.0298C71.4413 36.0994 71.0908 36.1417 70.6781 36.1566C69.9125 36.1864 69.2413 36.0845 68.6646 35.8509C68.0929 35.6172 67.6479 35.2543 67.3298 34.7621C67.0116 34.2699 66.855 33.6484 66.86 32.8977V21.8011ZM79.3585 36.2237C78.1803 36.2237 77.1661 35.9851 76.3159 35.5078C75.4707 35.0256 74.8195 34.3445 74.3621 33.4645C73.9047 32.5795 73.676 31.533 73.676 30.3249C73.676 29.1467 73.9047 28.1126 74.3621 27.2227C74.8195 26.3327 75.4633 25.6392 76.2935 25.142C77.1288 24.6449 78.1082 24.3963 79.2318 24.3963C79.9874 24.3963 80.6909 24.5181 81.3422 24.7617C81.9984 25.0004 82.5702 25.3608 83.0574 25.843C83.5496 26.3253 83.9324 26.9318 84.2058 27.6626C84.4793 28.3885 84.616 29.2386 84.616 30.2131V31.0856H74.9438V29.1168H81.6256C81.6256 28.6594 81.5261 28.2543 81.3273 27.9013C81.1284 27.5483 80.8525 27.2724 80.4995 27.0735C80.1515 26.8697 79.7463 26.7678 79.284 26.7678C78.8017 26.7678 78.3742 26.8796 78.0013 27.1033C77.6334 27.3221 77.345 27.6179 77.1362 27.9908C76.9274 28.3587 76.8205 28.7688 76.8156 29.2212V31.093C76.8156 31.6598 76.92 32.1495 77.1288 32.5621C77.3426 32.9748 77.6433 33.293 78.0311 33.5167C78.4189 33.7404 78.8788 33.8523 79.4107 33.8523C79.7637 33.8523 80.0869 33.8026 80.3802 33.7031C80.6735 33.6037 80.9246 33.4545 81.1334 33.2557C81.3422 33.0568 81.5013 32.8132 81.6107 32.5249L84.5489 32.7188C84.3997 33.4247 84.094 34.0412 83.6316 34.5682C83.1742 35.0902 82.5826 35.4979 81.8568 35.7912C81.1359 36.0795 80.3031 36.2237 79.3585 36.2237ZM91.0275 23.3896V20.7273H103.571V23.3896H98.895V36H95.7033V23.3896H91.0275ZM107.285 36.2163C106.554 36.2163 105.902 36.0895 105.331 35.8359C104.759 35.5774 104.307 35.1971 103.973 34.695C103.645 34.1879 103.481 33.5565 103.481 32.8008C103.481 32.1644 103.598 31.63 103.832 31.1974C104.065 30.7649 104.384 30.4169 104.786 30.1534C105.189 29.8899 105.646 29.6911 106.159 29.5568C106.676 29.4226 107.217 29.3281 107.784 29.2734C108.45 29.2038 108.987 29.1392 109.395 29.0795C109.803 29.0149 110.099 28.9205 110.282 28.7962C110.466 28.6719 110.558 28.4879 110.558 28.2443V28.1996C110.558 27.7273 110.409 27.3619 110.111 27.1033C109.818 26.8448 109.4 26.7156 108.858 26.7156C108.286 26.7156 107.831 26.8423 107.493 27.0959C107.155 27.3445 106.932 27.6577 106.822 28.0355L103.884 27.7969C104.033 27.1009 104.326 26.4993 104.764 25.9922C105.201 25.4801 105.766 25.0874 106.457 24.8139C107.153 24.5355 107.958 24.3963 108.873 24.3963C109.509 24.3963 110.118 24.4709 110.7 24.62C111.287 24.7692 111.806 25.0004 112.259 25.3136C112.716 25.6268 113.076 26.0295 113.34 26.5217C113.603 27.0089 113.735 27.593 113.735 28.2741V36H110.722V34.4116H110.633C110.449 34.7695 110.203 35.0852 109.895 35.3587C109.586 35.6271 109.216 35.8384 108.784 35.9925C108.351 36.1417 107.851 36.2163 107.285 36.2163ZM108.194 34.0238C108.662 34.0238 109.074 33.9318 109.432 33.7479C109.79 33.5589 110.071 33.3054 110.275 32.9872C110.479 32.669 110.581 32.3086 110.581 31.9059V30.6903C110.481 30.755 110.345 30.8146 110.171 30.8693C110.002 30.919 109.81 30.9663 109.596 31.011C109.383 31.0508 109.169 31.0881 108.955 31.1229C108.741 31.1527 108.547 31.18 108.373 31.2049C108 31.2596 107.675 31.3466 107.396 31.4659C107.118 31.5852 106.902 31.7468 106.748 31.9506C106.594 32.1495 106.516 32.3981 106.516 32.6964C106.516 33.1289 106.673 33.4595 106.986 33.6882C107.304 33.9119 107.707 34.0238 108.194 34.0238ZM125.73 27.8118L122.822 27.9908C122.772 27.7422 122.665 27.5185 122.501 27.3196C122.337 27.1158 122.121 26.9542 121.853 26.8349C121.589 26.7106 121.273 26.6484 120.905 26.6484C120.413 26.6484 119.998 26.7528 119.66 26.9616C119.322 27.1655 119.153 27.4389 119.153 27.782C119.153 28.0554 119.262 28.2866 119.481 28.4755C119.7 28.6644 120.075 28.8161 120.607 28.9304L122.68 29.348C123.794 29.5767 124.624 29.9446 125.171 30.4517C125.718 30.9588 125.991 31.625 125.991 32.4503C125.991 33.201 125.77 33.8597 125.328 34.4265C124.89 34.9933 124.289 35.4357 123.523 35.7539C122.762 36.0671 121.885 36.2237 120.891 36.2237C119.374 36.2237 118.166 35.908 117.266 35.2766C116.371 34.6403 115.847 33.7752 115.693 32.6815L118.817 32.5174C118.912 32.9798 119.141 33.3327 119.504 33.5763C119.866 33.815 120.331 33.9343 120.898 33.9343C121.455 33.9343 121.902 33.8274 122.24 33.6136C122.583 33.3949 122.757 33.114 122.762 32.771C122.757 32.4826 122.636 32.2464 122.397 32.0625C122.158 31.8736 121.79 31.7294 121.293 31.63L119.31 31.2347C118.191 31.011 117.358 30.6232 116.811 30.0714C116.269 29.5195 115.999 28.8161 115.999 27.9609C115.999 27.2251 116.197 26.5913 116.595 26.0593C116.998 25.5273 117.562 25.1172 118.288 24.8288C119.019 24.5405 119.874 24.3963 120.853 24.3963C122.3 24.3963 123.439 24.7021 124.269 25.3136C125.104 25.9251 125.591 26.7578 125.73 27.8118ZM130.87 32.7038L130.878 28.8931H131.34L135.009 24.5455H138.656L133.727 30.3026H132.973L130.87 32.7038ZM127.992 36V20.7273H131.169V36H127.992ZM135.151 36L131.78 31.011L133.898 28.7663L138.872 36H135.151Z" fill="white"/>
<mask id="mask0_75601_15073" style="mask-type:alpha" maskUnits="userSpaceOnUse" x="143" y="16" width="25" height="24">
<rect x="143.249" y="16" width="24" height="24" fill="#D9D9D9"/>
</mask>
<g mask="url(#mask0_75601_15073)">
<path d="M152.799 31.15L161.274 22.675C161.474 22.475 161.712 22.375 161.987 22.375C162.262 22.375 162.499 22.475 162.699 22.675C162.899 22.875 162.999 23.1125 162.999 23.3875C162.999 23.6625 162.899 23.9 162.699 24.1L153.499 33.3C153.299 33.5 153.066 33.6 152.799 33.6C152.533 33.6 152.299 33.5 152.099 33.3L147.799 29C147.599 28.8 147.503 28.5625 147.512 28.2875C147.52 28.0125 147.624 27.775 147.824 27.575C148.024 27.375 148.262 27.275 148.537 27.275C148.812 27.275 149.049 27.375 149.249 27.575L152.799 31.15Z" fill="white"/>
</g>
</svg>
