<svg width="18" height="13" viewBox="0 0 18 13" fill="none" xmlns="http://www.w3.org/2000/svg">
<g clip-path="url(#clip0_75609_16146)">
<path d="M8.7217 5.15161C8.92113 5.15128 9.1154 5.21318 9.27594 5.32822L16.8444 10.7622C16.9429 10.8329 17.0261 10.9219 17.0892 11.0239C17.1523 11.1259 17.1942 11.239 17.2123 11.3568C17.249 11.5945 17.187 11.8367 17.0401 12.0301C16.8931 12.2235 16.6731 12.3521 16.4285 12.3878C16.1839 12.4235 15.9348 12.3632 15.7359 12.2203L8.7217 7.18935L1.70745 12.2203C1.60898 12.2911 1.49713 12.3423 1.3783 12.371C1.25947 12.3998 1.13598 12.4055 1.01488 12.3878C0.893784 12.3701 0.777451 12.3295 0.672524 12.2681C0.567595 12.2067 0.476126 12.1258 0.403342 12.0301C0.330557 11.9344 0.27788 11.8256 0.24832 11.7101C0.21876 11.5946 0.212895 11.4745 0.231059 11.3567C0.249224 11.239 0.291062 11.1259 0.354188 11.0239C0.417311 10.9219 0.500485 10.8329 0.598959 10.7622L8.16745 5.32822C8.32799 5.21318 8.52227 5.15128 8.7217 5.15161Z" fill="#FF0000"/>
<path d="M8.7217 0.396729C8.92113 0.396395 9.1154 0.458298 9.27594 0.573333L16.8444 6.0073C17.0433 6.15021 17.1757 6.36409 17.2123 6.60187C17.249 6.83965 17.187 7.08186 17.0401 7.27522C16.8931 7.46858 16.6731 7.59724 16.4285 7.63291C16.1839 7.66858 15.9348 7.60833 15.7359 7.46541L8.7217 2.43446L1.70745 7.46541C1.50857 7.60832 1.25945 7.66858 1.01488 7.63291C0.770313 7.59724 0.550337 7.46858 0.403342 7.27522C0.256346 7.08186 0.194375 6.83965 0.231059 6.60187C0.267745 6.36409 0.400082 6.15021 0.598959 6.00729L8.16745 0.573333C8.32799 0.458298 8.52227 0.396395 8.7217 0.396729Z" fill="#FF0000"/>
</g>
<defs>
<clipPath id="clip0_75609_16146">
<rect width="17" height="12" fill="white" transform="translate(17.2217 12.3967) rotate(-180)"/>
</clipPath>
</defs>
</svg>
